<?xml version="1.0" standalone="no"?>
<!DOCTYPE svg PUBLIC "-//W3C//DTD SVG 20010904//EN"
 "http://www.w3.org/TR/2001/REC-SVG-20010904/DTD/svg10.dtd">
<svg version="1.0" xmlns="http://www.w3.org/2000/svg"
 width="1024.000000pt" height="1024.000000pt" viewBox="0 0 1024.000000 1024.000000"
 preserveAspectRatio="xMidYMid meet">

<g transform="translate(0.000000,1024.000000) scale(0.100000,-0.100000)"
fill="#000000" stroke="none">
<path d="M4900 8954 c-590 -42 -1073 -172 -1560 -420 -377 -191 -703 -434
-1010 -750 -575 -592 -921 -1318 -1032 -2162 -29 -226 -32 -680 -5 -907 88
-731 365 -1385 829 -1957 124 -153 395 -422 548 -544 592 -472 1273 -758 2020
-851 206 -25 715 -25 920 0 920 114 1766 550 2394 1232 564 615 900 1363 988
2200 17 171 15 598 -5 765 -106 890 -473 1659 -1081 2266 -629 627 -1439 1011
-2338 1109 -138 15 -556 27 -668 19z m-513 -2400 c269 -39 482 -141 672 -320
155 -146 257 -309 314 -502 l16 -52 -332 0 -332 0 -30 51 c-41 69 -158 178
-228 212 -105 51 -196 68 -357 68 -114 0 -162 -4 -225 -20 -242 -63 -422 -242
-508 -504 -25 -79 -30 -112 -35 -233 -3 -87 0 -174 7 -224 47 -321 258 -555
576 -641 110 -30 326 -33 435 -5 236 59 414 211 502 431 14 33 28 72 31 88 l7
27 -450 0 -450 0 0 220 0 220 715 0 715 0 0 -258 0 -258 -34 -100 c-68 -201
-168 -366 -319 -521 -262 -269 -560 -383 -1005 -383 -261 0 -424 33 -617 125
-313 149 -547 414 -659 745 -53 159 -69 268 -69 465 0 353 84 639 254 865 72
95 225 243 309 298 153 101 356 177 550 206 131 19 416 20 547 0z m2448 0
c397 -68 660 -324 703 -682 l8 -72 -306 0 -305 0 -12 59 c-26 141 -98 213
-241 241 -127 25 -261 -8 -326 -80 -87 -96 -80 -269 14 -354 61 -55 134 -87
425 -186 382 -130 506 -192 622 -312 66 -69 114 -145 148 -238 25 -67 28 -91
32 -230 6 -182 -7 -259 -61 -371 -143 -298 -495 -469 -922 -446 -417 22 -707
193 -849 499 -29 64 -75 242 -75 292 0 14 33 16 309 16 l308 0 6 -49 c12 -104
86 -203 186 -250 51 -24 67 -26 176 -26 104 0 127 3 171 23 102 46 146 119
147 243 1 92 -23 148 -88 208 -67 62 -163 104 -480 211 -161 54 -326 115 -366
136 -240 120 -354 309 -366 604 -4 105 -2 139 16 214 70 294 303 494 639 551
111 19 377 18 487 -1z"/>
</g>
</svg>
